<?xml version="1.0" encoding="UTF-8"?>
<svg width="54px" height="54px" viewBox="0 0 54 54" version="1.1" xmlns="http://www.w3.org/2000/svg" xmlns:xlink="http://www.w3.org/1999/xlink">
    <!-- Generator: Sketch 64 (93537) - https://sketch.com -->
    <title>Path</title>
    <desc>Created with Sketch.</desc>
    <g id="Page-1" stroke="none" stroke-width="1" fill="none" fill-rule="evenodd">
        <g id="noun_X_3388368" fill="#EDEDED" fill-rule="nonzero">
            <path d="M53.0125924,0.987407589 C51.6956513,-0.329135863 49.5608896,-0.329135863 48.2439485,0.987407589 L27.0211226,22.2102336 L5.79829659,0.987407589 C4.47501853,-0.290657126 2.37160179,-0.272379003 1.07073395,1.02848883 C-0.230133879,2.32935666 -0.248412002,4.43277341 1.02965271,5.75605147 L22.2524787,26.9788774 L1.02965271,48.2017034 C0.152962208,49.0484394 -0.198635951,50.3023278 0.109995269,51.4814354 C0.418626489,52.6605431 1.33945688,53.5813735 2.51856456,53.8900047 C3.69767223,54.198636 4.95156057,53.8470378 5.79829659,52.9703473 L27.0211226,31.7475213 L48.2439485,52.9703473 C49.5672266,54.248412 51.6706433,54.2301339 52.9715112,52.929266 C54.272379,51.6283982 54.2906571,49.5249815 53.0125924,48.2017034 L31.7897664,26.9788774 L53.0125924,5.75605147 C54.3291359,4.43911036 54.3291359,2.3043487 53.0125924,0.987407589 Z" id="Path"></path>
        </g>
    </g>
</svg>