<?xml version="1.0" encoding="UTF-8"?>
<svg width="234px" height="58px" viewBox="0 0 234 58" version="1.1" xmlns="http://www.w3.org/2000/svg" xmlns:xlink="http://www.w3.org/1999/xlink">
    <!-- Generator: Sketch 64 (93537) - https://sketch.com -->
    <title>MOVIFY</title>
    <desc>Created with Sketch.</desc>
    <g id="Page-1" stroke="none" stroke-width="1" fill="none" fill-rule="evenodd">
        <path d="M8.66277372,57.4041659 L8.66277372,34.744 C8.66277372,29.348 7.84671533,21.292 7.40729927,15.896 L7.65839416,15.896 L11.4875912,29.272 L18.6437956,52.832 L24.1372455,52.413832 L31.2613139,29.272 L35.1532847,15.896 L35.4043796,15.896 C34.9649635,21.292 34.2116788,29.348 34.2116788,34.744 L34.2116788,55 L43,54.3266847 L43,1 L32.3284672,1 L24.5445255,27.372 C23.6029197,30.944 22.7868613,34.668 21.7824818,38.24 L21.4686131,38.24 C20.4642336,34.668 19.5854015,30.944 18.6437956,27.372 L10.6715328,1 L0,1 L0,58 L8.66277372,57.4041659 Z M73,52.1028187 C85.4005935,52.1028187 94,47.7763496 94,29.1966581 C94,10.7686375 85.4005935,0 73,0 C60.537092,0 52,10.6928021 52,29.1966581 C52,47.7763496 60.537092,52.1028187 73,52.1028187 Z M73.4679666,44 C66.4846797,44 62,41.3066406 62,29.1953125 C62,17.1601562 66.4846797,10 73.4679666,10 C80.5153203,10 85,17.1601562 85,29.1953125 C85,41.3066406 80.5153203,44 73.4679666,44 Z M123.732087,51 L138,1 L128.218069,1 L121.42143,28.0993621 L118.373832,38.904 L118.062305,38.904 L114.967326,28.0993621 L108.093458,1 L98,1 L112.267913,51 L123.732087,51 Z M153,52 L153,1 L143,1 L143,51 L153,52 Z M174.541935,53 L174.541935,35.048 L191.131183,35.048 L191.131183,25.32 L174.541935,25.32 L174.541935,10.728 L194,10.728 L194,1 L165,1 L165,52 L174.541935,53 Z M219.765677,57 L219.765677,37.328 L234,1 L223.90429,1 L219.326733,14.756 C218.009901,19.012 216.567657,22.964 215.188119,27.372 L214.874587,27.372 C213.49505,22.964 212.178218,19.012 210.861386,14.756 L206.283828,1 L196,1 L210.171617,37.328 L210.171617,56 L219.765677,57 Z" id="MOVIFY" fill="#F50000" fill-rule="nonzero"></path>
    </g>
</svg>