<?xml version="1.0" encoding="UTF-8"?>
<svg width="48px" height="87px" viewBox="0 0 48 87" version="1.1" xmlns="http://www.w3.org/2000/svg" xmlns:xlink="http://www.w3.org/1999/xlink">
    <!-- Generator: Sketch 64 (93537) - https://sketch.com -->
    <title>Path</title>
    <desc>Created with Sketch.</desc>
    <g id="Page-1" stroke="none" stroke-width="1" fill="none" fill-rule="evenodd">
        <g id="noun_Arrow_1807380" transform="translate(3.000000, 3.000000)" fill="#8E8E8E" fill-rule="nonzero" stroke="#8E8E8E" stroke-width="8">
            <g id="Group" transform="translate(0.000000, 0.637820)">
                <path d="M40.9842426,39.5617409 C40.9149233,38.5829544 40.5227555,37.6558525 39.8703734,36.9285051 L8.5745932,1.81857699 C7.53614171,0.652207745 5.96025827,0.133867925 4.44064223,0.458837216 C2.92102619,0.783806508 1.68858019,1.90270648 1.20761676,3.394002 C0.726653323,4.88529753 1.07025389,6.52238923 2.10897015,7.6885181 L30.7967679,39.8635108 L2.10897015,72.0384244 C1.07025389,73.2045533 0.726653324,74.841645 1.20761676,76.3329405 C1.68858019,77.824236 2.92102619,78.943136 4.44064223,79.2681053 C5.96025827,79.5930746 7.53614171,79.0747348 8.5745932,77.9083655 L39.8703734,42.7984374 C40.6606495,41.9164756 41.0626095,40.7484548 40.9842426,39.5617409 L40.9842426,39.5617409 Z" id="Path"></path>
            </g>
        </g>
    </g>
</svg>