<?xml version="1.0" encoding="UTF-8"?>
<svg width="35px" height="48px" viewBox="0 0 35 48" version="1.1" xmlns="http://www.w3.org/2000/svg" xmlns:xlink="http://www.w3.org/1999/xlink">
    <!-- Generator: Sketch 64 (93537) - https://sketch.com -->
    <title>Shape</title>
    <desc>Created with Sketch.</desc>
    <g id="Page-1" stroke="none" stroke-width="1" fill="none" fill-rule="evenodd">
        <path d="M33.268,0.677 C32.7794958,0.416265737 32.1870793,0.445867343 31.727,0.754 L14.22,12.493 L5.543,12.493 C2.50680465,12.4963068 0.0463068049,14.9568047 0.043,17.993 L0.043,30.007 C0.0463068049,33.0431953 2.50680465,35.5036932 5.543,35.507 L14.22,35.507 L31.727,47.246 C32.1870707,47.5542881 32.7795777,47.5839941 33.2681765,47.3232686 C33.7567753,47.062543 34.062,46.553811 34.062,46 L34.062,2 C34.062,1.44624742 33.7565821,0.937632868 33.268,0.677 Z M3.043,30.007 L3.043,17.993 C3.043,16.6122881 4.16228813,15.493 5.543,15.493 L13.177,15.493 L13.177,32.507 L5.543,32.507 C4.16228813,32.507 3.043,31.3877119 3.043,30.007 Z M31.062,43.188 L16.177,33.206 L16.177,14.794 L31.062,4.812 L31.062,43.188 Z" id="Shape" fill="#FFFFFF" fill-rule="nonzero"></path>
    </g>
</svg>