<?xml version="1.0" encoding="UTF-8"?>
<svg width="80px" height="90px" viewBox="0 0 80 90" version="1.1" xmlns="http://www.w3.org/2000/svg" xmlns:xlink="http://www.w3.org/1999/xlink">
    <!-- Generator: Sketch 64 (93537) - https://sketch.com -->
    <title>noun_thumbs up_1041959</title>
    <desc>Created with Sketch.</desc>
    <g id="Page-1" stroke="none" stroke-width="1" fill="none" fill-rule="evenodd">
        <g id="noun_thumbs-up_1041959" transform="translate(0.000000, -1.000000)" fill="#FFFFFF" fill-rule="nonzero">
            <g id="Group" transform="translate(0.000000, 0.637820)">
                <path d="M54,0.36218 C51.537012,0.36218 49.812412,1.94018 48.59375,3.48718 C47.375088,5.03418 46.363003,6.8366 45.3125,8.79968 C43.246568,12.66029 40.951226,17.02865 38,20.04968 C31.110198,24.08977 26.016922,29.17922 21.96875,35.08093 C14.807119,39.75819 11.823735,40.36218 3,40.36218 C1.34321437,40.3623457 0,41.7053944 0,43.36218 L0,77.36218 C0,79.0189656 1.34321437,80.3620143 3,80.36218 C9.636887,80.37218 16.60691,82.70603 23.90625,85.20593 C31.20559,87.70573 38.834133,90.36218 47,90.36218 L55,90.36218 C58.928571,90.36218 62.516875,89.54508 65.34375,87.54968 C67.551876,85.99098 69.096105,83.57083 69.6875,80.76843 C71.421258,80.08673 72.90231,78.87368 73.875,77.36218 C75.324103,75.11028 76,72.33528 76,69.36218 C76,67.91478 75.786355,66.62843 75.53125,65.58093 C75.52915,65.57093 75.53335,65.55768 75.53125,65.54968 C77.968693,63.65008 80.0000407,60.93018 80.0000407,57.36218 C80.0000407,55.11258 79.356083,53.12523 78.34375,51.64343 C78.023447,51.17463 77.626953,50.93278 77.28125,50.54968 C79.020865,48.50598 79.963135,45.95543 80.0000407,43.39343 C80.0000407,43.3830134 80.0000407,43.3725966 80.0000407,43.36218 C80.0000407,39.80765 78.917709,36.61851 76.6875,34.45593 C74.457291,32.29315 71.337503,31.36218 68,31.36218 L55.09375,31.36218 C58.483245,25.63072 62,19.41966 62,11.36218 C62.0034,8.62435 61.592404,6.12303 60.34375,4.01843 C59.095096,1.91383 56.635811,0.36218 54,0.36218 Z M54.09375,6.36218 C54.706317,6.365849 54.794274,6.418192 55.1875,7.08093 C55.602865,7.78102 56.002564,9.28753 56,11.33093 C55.9999458,11.3413466 55.9999458,11.3517634 56,11.36218 C56,19.25107 51.513111,25.67517 47.40625,32.86218 C46.8709358,33.789739 46.8706218,34.9323061 47.4054261,35.8601592 C47.9402303,36.7880124 48.9290546,37.3604511 50,37.36218 L68,37.36218 C70.251663,37.36218 71.627501,37.92239 72.5,38.76843 C73.363297,39.60555 73.987101,40.93666 74.0000244,43.29968 C74.0000244,43.31268 74.0000244,43.31893 74.0000244,43.33093 C73.96868,44.37043 72.514168,47.17758 71.53125,47.73718 C70.697653,48.2085099 70.1391241,49.0494483 70.0279513,50.0005931 C69.9167786,50.951738 70.2663187,51.8988143 70.96875,52.54968 C72.185625,53.68118 73.007706,54.43513 73.40625,55.01843 C73.804794,55.60183 74.0000244,56.03678 74.0000244,57.36218 C74.0000244,58.80168 72.568247,60.60503 70.5625,61.70593 C69.2135619,62.4372871 68.6338432,64.0685887 69.21875,65.48718 C69.396333,65.92148 70,67.70168 70,69.36218 C70,71.38908 69.486063,73.11408 68.84375,74.11218 C68.201437,75.11028 67.716555,75.36218 67,75.36218 C65.3432144,75.3623457 64.0001657,76.7053944 64,78.36218 C64,80.52888 63.329375,81.63893 61.90625,82.64343 C60.483125,83.64803 58.071429,84.36218 55,84.36218 L47,84.36218 C40.165867,84.36218 33.135177,82.01563 25.84375,79.51843 C19.478139,77.33843 12.885608,75.13573 6,74.58093 L6,46.23718 C13.505677,45.95278 18.578522,44.53648 25.65625,39.86218 C25.991155,39.6402585 26.2780785,39.353335 26.5,39.01843 C30.286654,33.33845 34.900728,28.72694 41.5,24.95593 C41.729729,24.8179246 41.9399323,24.649762 42.125,24.45593 C46.100325,20.4806 48.578746,15.46727 50.625,11.64343 C51.648127,9.73151 52.555134,8.09643 53.28125,7.17468 C53.825837,6.483368 54.097997,6.37466 54.09375,6.36218 Z" id="Shape"></path>
            </g>
        </g>
    </g>
</svg>